<?xml version="1.0" encoding="utf-8"?>
<svg xmlns="http://www.w3.org/2000/svg" viewBox="0 0 500 500">
  <g transform="matrix(0.01466, 0, 0, -0.01466, -3.125926, 59.093124)" fill="#000000" stroke="none" style="">
    <path d="M4948 3823 l-68 -4 0 -424 0 -425 -285 0 -285 0 2 -372 3 -373 280 -2 280 -2 6 -628 c5 -527 8 -645 23 -736 24 -153 59 -266 115 -382 86 -174 191 -280 356 -360 186 -91 365 -115 853 -115 l332 0 0 365 0 365 -269 0 c-325 0 -346 4 -433 91 -47 47 -60 67 -77 125 -21 67 -21 85 -19 672 l3 603 398 -1 397 0 0 375 0 375 -400 0 -400 0 0 430 0 430 -372 -2 c-205 -1 -403 -3 -440 -5z" style="fill: rgb(47, 128, 237);"/>
    <path d="M1642 3740 c-358 -50 -666 -262 -817 -563 -24 -48 -61 -138 -81 -200 -35 -108 -37 -119 -42 -285 -5 -203 5 -282 55 -426 64 -184 140 -311 257 -429 211 -214 506 -318 860 -304 198 8 336 50 521 162 114 69 190 89 305 82 206 -12 366 -137 425 -331 14 -45 25 -87 25 -94 0 -9 -179 -12 -775 -12 l-775 0 0 -136 c0 -471 188 -808 557 -1001 484 -253 1126 -97 1413 344 133 202 189 389 190 625 1 164 -13 267 -50 380 -32 96 -96 229 -143 298 -47 68 -175 197 -243 246 -190 136 -498 226 -714 209 -195 -15 -366 -67 -520 -158 -62 -37 -131 -69 -170 -79 -265 -69 -517 71 -594 331 -30 102 -121 91 759 91 l775 0 0 138 c0 348 -97 612 -299 813 -131 131 -298 225 -483 273 -109 28 -327 41 -436 26z m251 -505 c38 -8 93 -25 123 -39 103 -47 199 -162 219 -263 l7 -33 -456 0 -456 0 25 56 c67 151 180 247 329 279 80 18 127 18 209 0z m1212 -2361 c-85 -193 -234 -288 -445 -287 -146 1 -253 46 -344 142 -48 52 -78 108 -91 169 l-7 32 456 0 456 0 -25 -56z" style="fill: rgb(47, 128, 237);"/>
    <path d="M7995 3150 c-546 -50 -1015 -374 -1244 -861 -122 -260 -170 -523 -150 -830 15 -227 62 -399 169 -614 76 -154 149 -258 262 -373 260 -267 569 -412 974 -457 140 -16 161 -16 295 0 295 33 503 105 724 250 275 180 494 470 573 758 l10 37 -466 0 -467 -1 -35 -61 c-65 -113 -181 -194 -318 -224 -100 -21 -273 -18 -366 6 -158 40 -306 149 -385 283 -37 62 -86 198 -97 265 l-7 42 1095 0 1095 0 6 68 c39 405 -73 833 -294 1128 -316 423 -815 635 -1374 584z m385 -739 c206 -71 381 -258 392 -421 l3 -35 -635 0 c-733 0 -656 -16 -590 120 85 175 230 296 412 345 103 28 323 23 418 -9z" style="fill: rgb(47, 128, 237);"/>
    <path d="M13225 3151 c-198 -20 -342 -60 -524 -147 -373 -178 -640 -478 -756 -851 l-13 -43 469 0 469 0 25 50 c31 61 116 147 181 182 85 46 165 62 314 62 99 0 152 -5 199 -18 180 -50 323 -169 404 -336 42 -87 77 -194 77 -234 0 -15 -96 -16 -1094 -16 l-1094 0 -7 -97 c-51 -668 262 -1260 809 -1535 170 -86 319 -127 553 -153 139 -16 160 -16 294 -1 364 42 628 150 883 365 87 73 206 210 274 314 53 82 143 268 172 357 56 168 72 265 77 485 5 182 2 226 -15 331 -28 163 -71 293 -147 449 -211 429 -610 729 -1085 815 -125 22 -349 32 -465 21z m810 -1963 c-4 -13 -22 -54 -41 -93 -83 -175 -233 -299 -424 -351 -89 -24 -281 -24 -369 0 -228 62 -399 231 -436 429 l-7 37 642 0 641 0 -6 -22z" style="fill: rgb(47, 128, 237);"/>
    <path d="M9890 1490 l0 -1480 434 0 434 0 5 768 c5 822 6 840 58 995 60 176 174 312 323 386 113 56 161 64 404 68 l222 5 0 369 0 369 -225 0 c-308 0 -397 -19 -546 -117 -79 -51 -183 -159 -230 -237 -19 -31 -37 -56 -41 -56 -5 0 -8 92 -8 205 l0 205 -415 0 -415 0 0 -1480z" style="fill: rgb(47, 128, 237);"/>
  </g>
</svg>